<svg fill="#ff6347" height="200px" width="200px" version="1.1" id="Layer_1" xmlns="http://www.w3.org/2000/svg" xmlns:xlink="http://www.w3.org/1999/xlink" viewBox="0 0 512 512" xml:space="preserve"><g id="SVGRepo_bgCarrier" stroke-width="0"></g><g id="SVGRepo_tracerCarrier" stroke-linecap="round" stroke-linejoin="round"></g><g id="SVGRepo_iconCarrier"> <g> <g> <path d="M356.286,478.572c-169.626,0-125.684,0-200.572,0c-9.727,0-19.215-1.007-28.433-2.78l4.243,8.487 C140.078,501.38,157.26,512,176.373,512h159.254c19.113,0,36.296-10.62,44.849-27.721l4.243-8.487 C375.501,477.564,366.012,478.572,356.286,478.572z"></path> </g> </g> <g> <g> <path d="M148.058,0.865c-43.813-7.097-81.655,30.652-74.539,74.437c1.771,10.919,6.175,20.839,12.633,29.209 c18.031-42.473,60.124-71.457,107.659-71.457h0.242C184.358,15.779,167.82,4.072,148.058,0.865z"></path> </g> </g> <g> <g> <path d="M373.414,0.865c-19.91,3.231-36.557,15.09-46.213,32.587c46.435,3.601,86.316,34.749,101.45,78.379 c10.137-9.595,16.983-22.203,19.307-36.53C455.065,31.507,417.223-6.242,373.414,0.865z"></path> </g> </g> <g> <g> <path d="M356.286,311.429c-9.216,0-16.714,7.498-16.714,16.714c0,9.216,7.498,16.714,16.714,16.714S373,337.359,373,328.143 C373,318.927,365.502,311.429,356.286,311.429z"></path> </g> </g> <g> <g> <path d="M419.351,229.752l-19.213-96.092c-7.786-38.924-42.248-67.178-81.95-67.178H193.811c-39.702,0-74.165,28.254-81.95,67.184 l-19.213,96.086c-32.385,20.832-53.934,57.109-53.934,98.391c0,64.513,52.487,117,117,117h200.572c64.513,0,117-52.487,117-117 C473.286,286.861,451.736,250.583,419.351,229.752z M155.714,378.286c-27.65,0-50.143-22.493-50.143-50.143 c0-27.65,22.493-50.143,50.143-50.143c27.65,0,50.143,22.493,50.143,50.143C205.857,355.793,183.364,378.286,155.714,378.286z M194.792,167.005c-9.231,0-16.714-7.484-16.714-16.714c0-9.231,7.484-16.714,16.714-16.714c9.231,0,16.714,7.484,16.714,16.714 C211.507,159.521,204.024,167.005,194.792,167.005z M300.65,150.291c0-9.231,7.484-16.714,16.714-16.714 c9.231,0,16.714,7.484,16.714,16.714c0,9.231-7.484,16.714-16.714,16.714C308.133,167.005,300.65,159.521,300.65,150.291z M356.286,378.286c-27.65,0-50.143-22.493-50.143-50.143c0-27.65,22.493-50.143,50.143-50.143s50.143,22.493,50.143,50.143 C406.429,355.793,383.936,378.286,356.286,378.286z"></path> </g> </g> <g> <g> <path d="M155.714,311.429c-9.216,0-16.714,7.498-16.714,16.714c0,9.216,7.498,16.714,16.714,16.714 c9.216,0,16.714-7.498,16.714-16.714C172.429,318.927,164.931,311.429,155.714,311.429z"></path> </g> </g> </g></svg>